HIERARCHY
ROOT Hips
{
 OFFSET 0.000000 0.000000 0.000000
 CHANNELS 6 Xposition Yposition Zposition Yrotation Xrotation Zrotation
 JOINT Chest
 {
  OFFSET 0.000000 9.585900 0.002600
  CHANNELS 3 Yrotation Xrotation Zrotation
  JOINT Chest2
  {
   OFFSET 0.000000 9.601200 -0.005300
   CHANNELS 3 Yrotation Xrotation Zrotation
   JOINT Chest3
   {
    OFFSET 0.000000 9.561800 0.000000
    CHANNELS 3 Yrotation Xrotation Zrotation
    JOINT Chest4
    {
     OFFSET 0.000000 9.552100 0.000000
     CHANNELS 3 Yrotation Xrotation Zrotation
     JOINT Neck
     {
      OFFSET 0.000000 14.453000 0.000000
      CHANNELS 3 Yrotation Xrotation Zrotation
      JOINT Head
      {
       OFFSET 0.000000 8.936500 -0.011300
       CHANNELS 3 Yrotation Xrotation Zrotation
       End Site
       {
        OFFSET 0.000000 17.073600 -0.006000
       }
      }
     }
     JOINT RightCollar
     {
      OFFSET -2.921100 9.558500 0.000000
      CHANNELS 3 Yrotation Xrotation Zrotation
      JOINT RightShoulder
      {
       OFFSET -13.519700 0.000000 0.000000
       CHANNELS 3 Yrotation Xrotation Zrotation
       JOINT RightElbow
       {
        OFFSET 0.000000 -29.696600 0.000000
        CHANNELS 3 Yrotation Xrotation Zrotation
        JOINT RightWrist
        {
         OFFSET 0.000000 -24.004700 0.000000
         CHANNELS 3 Yrotation Xrotation Zrotation
         End Site
         {
          OFFSET 0.000000 -17.728500 0.000000
         }
        }
       }
      }
     }
     JOINT LeftCollar
     {
      OFFSET 2.921100 9.558500 0.000000
      CHANNELS 3 Yrotation Xrotation Zrotation
      JOINT LeftShoulder
      {
       OFFSET 13.519700 0.000000 0.000000
       CHANNELS 3 Yrotation Xrotation Zrotation
       JOINT LeftElbow
       {
        OFFSET 0.000000 -29.696600 0.000000
        CHANNELS 3 Yrotation Xrotation Zrotation
        JOINT LeftWrist
        {
         OFFSET 0.000000 -24.004700 0.000000
         CHANNELS 3 Yrotation Xrotation Zrotation
         End Site
         {
          OFFSET 0.000000 -17.728500 0.000000
         }
        }
       }
      }
     }
    }
   }
  }
 }
 JOINT RightHip
 {
  OFFSET -7.771700 -0.012900 -0.001300
  CHANNELS 3 Yrotation Xrotation Zrotation
  JOINT RightKnee
  {
   OFFSET 0.000000 -40.869800 0.001200
   CHANNELS 3 Yrotation Xrotation Zrotation
   JOINT RightAnkle
   {
    OFFSET 0.000000 -39.717900 0.002100
    CHANNELS 3 Yrotation Xrotation Zrotation
    JOINT RightToe
    {
     OFFSET 0.000000 -4.965400 11.033500
     CHANNELS 3 Yrotation Xrotation Zrotation
     End Site
     {
      OFFSET 0.000000 -1.423100 5.872300
     }
    }
   }
  }
 }
 JOINT LeftHip
 {
  OFFSET 7.771700 -0.012900 -0.001300
  CHANNELS 3 Yrotation Xrotation Zrotation
  JOINT LeftKnee
  {
   OFFSET 0.000000 -40.869800 0.001200
   CHANNELS 3 Yrotation Xrotation Zrotation
   JOINT LeftAnkle
   {
    OFFSET 0.000000 -39.717900 0.002100
    CHANNELS 3 Yrotation Xrotation Zrotation
    JOINT LeftToe
    {
     OFFSET 0.000000 -4.965400 11.033500
     CHANNELS 3 Yrotation Xrotation Zrotation
     End Site
     {
      OFFSET 0.000000 -1.423100 5.872300
     }
    }
   }
  }
 }
}
MOTION
Frames: 8
Frame Time: 0.008333
-87.833225 44.280244 18.201578 174.392500 -21.532886 -0.326528 1.735109 17.357750 4.272248 0.124838 1.909965 0.439854 0.215450 3.169884 0.732753 1.434881 15.177849 3.698719 -2.144494 14.944312 -4.864127 -1.164118 -9.950144 -4.681052 13.464450 0.533711 -5.581890 4.534865 -18.894718 -24.352134 123.211583 -73.621306 -105.327453 -0.063366 -9.252841 -35.018767 -13.468150 -5.106615 -3.202689 10.073362 7.984134 25.211087 -128.384406 -68.744016 100.647542 -9.892502 -0.253093 -30.144891 1.199969 -70.406018 9.032056 -149.924110 70.443889 -148.170439 -12.388172 -25.158779 8.617707 -0.007483 0.005770 0.060175 4.769363 -54.602822 -1.554930 176.501579 58.447004 175.348620 -2.012491 -41.012167 3.091136 0.060422 -0.039596 -0.064785
-87.806227 44.293943 18.189108 174.426117 -21.681596 -0.332322 1.713941 17.350869 4.263330 0.122251 1.909094 0.439327 0.211087 3.168515 0.731806 1.413597 15.176623 3.692976 -2.104591 15.002385 -4.883950 -1.117338 -9.888236 -4.711680 13.439454 0.653653 -5.640659 4.552024 -19.047469 -24.199751 122.476548 -73.866811 -104.625043 -0.183806 -9.313110 -34.956726 -13.586567 -5.144852 -3.202216 10.112856 7.739342 25.182084 -128.501828 -69.118973 100.697482 -9.532363 0.097605 -28.776198 1.319680 -70.246899 8.888163 -149.939060 70.444429 -148.175930 -12.421634 -25.199315 8.650371 0.012843 0.039090 0.077344 4.714959 -54.445736 -1.530227 176.521471 58.441900 175.393053 -1.982505 -41.013685 3.073604 0.054842 -0.042411 -0.070902
-87.777442 44.306963 18.176104 174.448707 -21.842396 -0.352762 1.696349 17.354340 4.273321 0.119249 1.908368 0.439030 0.206059 3.167422 0.731361 1.389162 15.175757 3.688838 -2.060503 15.063902 -4.913566 -1.103583 -9.806493 -4.710590 13.424936 0.770873 -5.707571 4.588994 -19.209234 -24.043814 121.781012 -74.107742 -104.010851 -0.311806 -9.378649 -34.968159 -13.692006 -5.197052 -3.210999 10.105210 7.536457 25.150356 -128.651674 -69.576480 100.771880 -9.104371 0.324767 -27.305438 1.377277 -70.077862 8.825116 -149.879263 70.444428 -148.113549 -12.440086 -25.158263 8.671360 0.026312 -0.014010 0.089346 4.617150 -54.276156 -1.478779 176.532435 58.429335 175.436181 -1.920852 -41.024953 3.020644 0.052010 -0.035714 -0.058764
-87.751541 44.317757 18.165621 174.470299 -21.995041 -0.373481 1.667008 17.350781 4.281203 0.115841 1.907530 0.438992 0.200452 3.166142 0.731254 1.361892 15.174367 3.686403 -2.021212 15.177057 -4.934601 -1.017741 -9.791069 -4.802008 13.428429 0.873743 -5.779069 4.660462 -19.373738 -23.876423 121.177082 -74.378498 -103.541285 -0.447423 -9.420392 -35.082678 -13.788773 -5.260762 -3.228125 10.067146 7.370626 25.103346 -128.839572 -70.107184 100.875134 -8.645916 0.424984 -25.826221 1.512694 -69.918803 8.695984 -149.796440 70.450670 -148.000866 -12.440705 -25.078862 8.671396 0.019631 -0.083615 0.110326 4.530744 -54.121944 -1.427781 176.536082 58.419274 175.458572 -1.867461 -41.025426 2.985812 0.040363 -0.039129 -0.066651
-87.729834 44.326232 18.157340 174.483726 -22.142948 -0.389905 1.633190 17.342447 4.285409 0.112131 1.906945 0.439083 0.194254 3.165204 0.731272 1.331828 15.173882 3.684311 -1.972880 15.291999 -4.961743 -0.936913 -9.760516 -4.902173 13.454288 0.950287 -5.850481 4.749896 -19.548840 -23.686781 120.751463 -74.734911 -103.277587 -0.585100 -9.423452 -35.310122 -13.882434 -5.327894 -3.247816 10.015622 7.233669 25.032946 -129.069005 -70.684328 101.012957 -8.157203 0.422169 -24.426354 1.599181 -69.769570 8.614679 -149.714306 70.461081 -147.906777 -12.410746 -24.961577 8.646490 0.010665 -0.149094 0.116202 4.468356 -53.977102 -1.388756 176.527919 58.408615 175.465961 -1.823225 -41.019626 2.966184 0.023544 -0.043742 -0.076148
-87.711778 44.332965 18.149343 174.492266 -22.300758 -0.409243 1.592607 17.342349 4.291042 0.108453 1.906591 0.439132 0.188094 3.164624 0.731368 1.302011 15.174226 3.681979 -1.914271 15.305078 -5.038654 -0.878211 -9.604469 -4.943329 13.498045 1.000629 -5.916609 4.815057 -19.758486 -23.472606 120.676928 -75.203217 -103.348620 -0.758515 -9.373631 -35.617488 -13.977917 -5.383446 -3.267811 9.955313 7.120053 24.940661 -129.332331 -71.287463 101.182850 -7.626272 0.360544 -23.152734 1.590831 -69.611064 8.621524 -149.677813 70.471123 -147.872067 -12.378026 -24.835196 8.599159 0.029071 -0.212443 0.139702 4.392201 -53.828927 -1.378898 176.450920 58.385987 175.421818 -1.732489 -41.016308 2.878718 -0.001981 -0.052890 -0.082015
-87.697614 44.336789 18.143635 174.479443 -22.457330 -0.426565 1.562897 17.338409 4.297043 0.105148 1.906181 0.439230 0.182602 3.164024 0.731562 1.275448 15.174180 3.680404 -1.861441 15.373673 -5.102291 -0.810397 -9.487098 -5.006156 13.550914 1.026322 -5.971801 4.828345 -20.022388 -23.238009 121.167663 -75.763053 -103.933194 -1.008160 -9.246785 -35.988064 -14.079172 -5.420119 -3.286681 9.890726 7.032776 24.835717 -129.632885 -71.906260 101.384886 -7.055002 0.280944 -22.015596 1.585282 -69.449903 8.646240 -149.635064 70.487169 -147.829019 -12.363380 -24.751904 8.578934 0.058908 -0.201036 0.129996 4.350777 -53.680760 -1.354590 176.412047 58.364035 175.415855 -1.670183 -41.018353 2.820957 -0.015708 -0.053424 -0.074476
-87.684380 44.338041 18.138528 174.457558 -22.626902 -0.462706 1.541978 17.343780 4.321471 0.102337 1.905899 0.439301 0.177885 3.163657 0.731618 1.252559 15.174418 3.678638 -1.806482 15.468512 -5.157028 -0.739846 -9.384112 -5.078917 13.607391 1.024648 -6.011628 4.801129 -20.342120 -22.990630 122.340890 -76.375295 -105.145786 -1.319280 -9.040330 -36.452795 -14.183839 -5.444159 -3.301008 9.824621 6.977121 24.728182 -129.951964 -72.534022 101.608568 -6.453300 0.205462 -21.014956 1.568004 -69.274700 8.690994 -149.581338 70.508852 -147.761651 -12.318958 -24.619441 8.531170 0.055413 -0.240130 0.141635 4.295732 -53.524491 -1.315374 176.384701 58.335601 175.439198 -1.585215 -41.017193 2.753786 -0.017342 -0.055792 -0.069112
